# Blender 3.3.1
# www.blender.org
mtllib angle with diagonal edge piece.mtl
o Cube
v 1.000000 0.259609 -3.558907
v 1.000000 -0.259609 -3.558907
v 1.000000 0.259609 2.968247
v 1.000000 -0.259609 2.968247
v -1.000000 0.259609 -2.968247
v -1.000000 -0.259609 -2.968247
v -1.000000 0.259609 2.968247
v -1.000000 -0.259609 2.968247
v -0.602260 0.259609 -4.957103
v -0.602260 -0.259609 -4.957103
v -3.910039 0.259609 -2.968247
v -3.910039 -0.259609 -2.968247
v -3.881952 0.259609 -4.957103
v -3.881952 -0.259609 -4.957103
v 0.093255 -0.259609 -4.343011
v 0.093255 0.259609 -4.343011
v -2.440976 0.259609 -3.962675
vn -0.0000 1.0000 -0.0000
vn -0.0000 -0.0000 1.0000
vn -1.0000 -0.0000 -0.0000
vn -0.0000 -1.0000 -0.0000
vn 1.0000 -0.0000 -0.0000
vn 0.6619 -0.0000 -0.7496
vn -0.0000 -0.0000 -1.0000
vn -0.9999 -0.0000 -0.0141
vn 0.6541 -0.0000 -0.7564
vt 0.625000 0.500000
vt 0.375000 0.500000
vt 0.625000 0.750000
vt 0.375000 0.750000
vt 0.625000 0.250000
vt 0.875000 0.500000
vt 0.125000 0.500000
vt 0.375000 0.250000
vt 0.875000 0.750000
vt 0.625000 1.000000
vt 0.625000 0.000000
vt 0.375000 1.000000
vt 0.375000 0.000000
vt 0.125000 0.750000
vt 0.625000 0.500000
vt 0.375000 0.500000
vt 0.625000 0.250000
vt 0.375000 0.250000
vt 0.625000 0.500000
vt 0.375000 0.500000
vt 0.375000 0.500000
vt 0.625000 0.500000
vt 0.750000 0.500000
s 0
usemtl Material
f 1/1/1 5/6/1 7/9/1 3/3/1
f 4/4/2 3/3/2 7/10/2 8/12/2
f 8/13/3 7/11/3 5/5/3 6/8/3
f 6/7/4 2/2/4 4/4/4 8/14/4
f 2/2/5 1/1/5 3/3/5 4/4/5
f 17/23/1 16/22/1 9/15/1 13/19/1
f 15/21/6 10/16/6 9/15/6 16/22/6
f 10/16/7 14/20/7 13/19/7 9/15/7
f 5/5/2 11/17/2 12/18/2 6/8/2
f 5/6/1 17/23/1 13/19/1 11/17/1
f 12/18/8 11/17/8 13/19/8 14/20/8
f 14/20/4 10/16/4 6/8/4 12/18/4
f 2/2/4 6/8/4 10/16/4 15/21/4
f 2/2/9 15/21/9 16/22/9 1/1/9
f 5/6/1 1/1/1 16/22/1 17/23/1
