# Blender 3.4.1
# www.blender.org
mtllib armadilloHouseStealthtut.mtl
o Cylinder.005
v 1.571769 -0.198030 -4.442444
v 1.571769 -0.198030 -4.399683
v 1.618229 -0.202606 -4.442444
v 1.618229 -0.202606 -4.399683
v 1.662904 -0.216158 -4.442444
v 1.662904 -0.216158 -4.399683
v 1.704076 -0.238165 -4.442444
v 1.704076 -0.238165 -4.399683
v 1.740164 -0.267782 -4.442444
v 1.740164 -0.267781 -4.399683
v 1.769781 -0.303870 -4.442444
v 1.769781 -0.303869 -4.399683
v 1.791788 -0.345042 -4.442444
v 1.791788 -0.345042 -4.399683
v 1.805339 -0.389716 -4.442444
v 1.805339 -0.389716 -4.399683
v 1.809915 -0.436176 -4.442444
v 1.809915 -0.436176 -4.399683
v 1.333623 -0.824542 -4.399683
v 1.809915 -0.824542 -4.399683
v 1.333623 -0.824542 -4.442444
v 1.809915 -0.824542 -4.442444
v 1.333623 -0.436176 -4.442444
v 1.333623 -0.436176 -4.399683
v 1.338199 -0.389716 -4.442444
v 1.338199 -0.389716 -4.399683
v 1.351751 -0.345042 -4.442444
v 1.351751 -0.345042 -4.399683
v 1.373758 -0.303870 -4.442444
v 1.373758 -0.303869 -4.399683
v 1.403374 -0.267782 -4.442444
v 1.403374 -0.267781 -4.399683
v 1.439462 -0.238165 -4.442444
v 1.439462 -0.238165 -4.399683
v 1.480635 -0.216158 -4.442444
v 1.480635 -0.216158 -4.399683
v 1.525309 -0.202606 -4.442444
v 1.525309 -0.202606 -4.399683
vn 0.0980 0.9952 -0.0000
vn 0.2903 0.9569 -0.0000
vn 0.4714 0.8819 -0.0000
vn 0.6344 0.7730 -0.0000
vn 0.7730 0.6344 -0.0000
vn 0.8819 0.4714 -0.0000
vn 0.9569 0.2903 -0.0000
vn -0.0000 -0.0000 1.0000
vn -1.0000 -0.0000 -0.0000
vn -0.0000 -0.0000 -1.0000
vn -0.0000 -1.0000 -0.0000
vn -0.9952 0.0980 -0.0000
vn 0.9952 0.0980 -0.0000
vn 1.0000 -0.0000 -0.0000
vn -0.9569 0.2903 -0.0000
vn -0.8819 0.4714 -0.0000
vn -0.7730 0.6344 -0.0000
vn -0.6344 0.7730 -0.0000
vn -0.4714 0.8819 -0.0000
vn -0.2903 0.9569 -0.0000
vn -0.0980 0.9952 -0.0000
vt 1.000000 0.500000
vt 0.000000 0.500000
vt 1.000000 1.000000
vt 0.000000 1.000000
vt 0.968750 0.500000
vt 0.968750 1.000000
vt 0.937500 0.500000
vt 0.937500 1.000000
vt 0.906250 0.500000
vt 0.906250 1.000000
vt 0.875000 0.500000
vt 0.875000 1.000000
vt 0.843750 0.500000
vt 0.843750 1.000000
vt 0.812500 0.500000
vt 0.812500 1.000000
vt 0.781250 0.500000
vt 0.781250 1.000000
vt 0.000000 0.000000
vt 0.000000 0.000000
vt 0.000000 0.000000
vt 0.000000 0.000000
vt 0.000000 0.000000
vt 0.000000 0.000000
vt 0.000000 0.000000
vt 0.000000 0.000000
vt 0.218750 0.500000
vt 0.218750 1.000000
vt 0.187500 0.500000
vt 0.187500 1.000000
vt 0.156250 0.500000
vt 0.156250 1.000000
vt 0.125000 0.500000
vt 0.125000 1.000000
vt 0.093750 0.500000
vt 0.093750 1.000000
vt 0.062500 0.500000
vt 0.062500 1.000000
vt 0.031250 0.500000
vt 0.031250 1.000000
s 0
usemtl Material.009
f 1/1/1 2/3/1 4/6/1 3/5/1
f 3/5/2 4/6/2 6/8/2 5/7/2
f 5/7/3 6/8/3 8/10/3 7/9/3
f 7/9/4 8/10/4 10/12/4 9/11/4
f 9/11/5 10/12/5 12/14/5 11/13/5
f 11/13/6 12/14/6 14/16/6 13/15/6
f 13/15/7 14/16/7 16/18/7 15/17/7
f 18/20/8 24/26/8 19/21/8 20/22/8
f 24/26/9 23/25/9 21/23/9 19/21/9
f 23/25/10 17/19/10 22/24/10 21/23/10
f 21/23/11 22/24/11 20/22/11 19/21/11
f 1/2/10 3/5/10 5/7/10 7/9/10 9/11/10 11/13/10 13/15/10 15/17/10 17/19/10 23/25/10 25/27/10 27/29/10 29/31/10 31/33/10 33/35/10 35/37/10 37/39/10
f 4/6/8 2/4/8 38/40/8 36/38/8 34/36/8 32/34/8 30/32/8 28/30/8 26/28/8 24/26/8 18/20/8 16/18/8 14/16/8 12/14/8 10/12/8 8/10/8 6/8/8
f 23/25/12 24/26/12 26/28/12 25/27/12
f 16/18/13 18/20/13 17/19/13 15/17/13
f 17/19/14 18/20/14 20/22/14 22/24/14
f 25/27/15 26/28/15 28/30/15 27/29/15
f 27/29/16 28/30/16 30/32/16 29/31/16
f 29/31/17 30/32/17 32/34/17 31/33/17
f 31/33/18 32/34/18 34/36/18 33/35/18
f 33/35/19 34/36/19 36/38/19 35/37/19
f 35/37/20 36/38/20 38/40/20 37/39/20
f 37/39/21 38/40/21 2/4/21 1/2/21
