# This file uses centimeters as units for non-parametric coordinates.

mtllib Shelf.mtl
g default
v -19.556222 11.466603 2.147600
v -19.556222 11.466603 -1.753202
v -19.556222 11.024024 2.147600
v -19.556222 11.024024 -1.753202
v -17.871453 11.466603 2.147600
v -17.840647 11.422351 2.147600
v -17.871453 11.466603 -1.753202
v -17.840647 11.422351 -1.753202
v -17.868373 11.024024 2.147600
v -17.840647 11.063852 2.147600
v -17.868373 11.024024 -1.753202
v -17.840647 11.063852 -1.753202
v -19.556222 9.831844 2.147600
v -19.556222 9.831844 -1.753202
v -19.556222 9.389264 2.147600
v -19.556222 9.389264 -1.753202
v -17.871453 9.831844 2.147600
v -17.840647 9.787590 2.147600
v -17.871453 9.831844 -1.753202
v -17.840647 9.787590 -1.753202
v -17.868373 9.389264 2.147600
v -17.840647 9.429092 2.147600
v -17.868373 9.389264 -1.753202
v -17.840647 9.429092 -1.753202
v -19.581722 11.625254 2.126899
v -19.581722 11.621473 2.545751
v -19.520314 8.025215 2.039132
v -19.520314 8.021685 2.395415
v -17.846719 8.021685 2.395415
v -17.789180 11.621473 2.545751
v -17.841270 8.025215 2.039132
v -17.792277 8.095591 2.039711
v -17.806626 8.045828 2.039302
v -17.792277 8.092767 2.324746
v -17.841270 8.021755 2.388283
v -17.806626 8.042817 2.343117
v -17.730870 11.549876 2.126218
v -17.783345 11.625254 2.126899
v -17.746238 11.603176 2.126699
v -17.730870 11.546851 2.461309
v -17.746238 11.599953 2.483870
v -17.783345 11.621549 2.537367
v -19.556222 8.543068 2.147600
v -19.556222 8.543068 -1.753202
v -19.556222 8.100489 2.147600
v -19.556222 8.100489 -1.753202
v -17.871453 8.543068 2.147600
v -17.840647 8.498815 2.147600
v -17.871453 8.543068 -1.753202
v -17.840647 8.498815 -1.753202
v -17.868373 8.100489 2.147600
v -17.840647 8.140317 2.147600
v -17.868373 8.100489 -1.753202
v -17.840647 8.140317 -1.753202
v -19.581722 11.623437 -2.139643
v -19.581722 11.623437 -1.720778
v -19.536748 8.022707 -2.102879
v -19.536748 8.022707 -1.757541
v -17.831320 8.022707 -2.102879
v -17.789180 11.623437 -2.139643
v -17.790465 8.043713 -1.757541
v -17.775843 8.094424 -1.757541
v -17.825769 8.022707 -1.757541
v -17.775843 8.094424 -2.033819
v -17.790465 8.043713 -2.052022
v -17.825769 8.022707 -2.095968
v -17.730870 11.548056 -1.720778
v -17.746238 11.601358 -1.720778
v -17.783345 11.623437 -1.720778
v -17.730870 11.548056 -2.055880
v -17.783345 11.623437 -2.131260
v -17.746238 11.601358 -2.077957
vt 0.375000 0.022498
vt 0.625000 0.022498
vt 0.625000 0.225003
vt 0.375000 0.225003
vt 0.375000 0.254489
vt 0.625000 0.254489
vt 0.625000 0.500000
vt 0.375000 0.500000
vt 0.625000 0.750000
vt 0.375000 0.750000
vt 0.625000 0.995960
vt 0.375000 0.995960
vt 0.125000 0.000000
vt 0.370960 0.000000
vt 0.370511 0.250000
vt 0.125000 0.250000
vt 0.629040 -0.000000
vt 0.875000 0.000000
vt 0.875000 0.250000
vt 0.629489 0.250000
vt 0.375000 0.022498
vt 0.625000 0.022498
vt 0.625000 0.225003
vt 0.375000 0.225003
vt 0.375000 0.254489
vt 0.625000 0.254489
vt 0.625000 0.500000
vt 0.375000 0.500000
vt 0.625000 0.750000
vt 0.375000 0.750000
vt 0.625000 0.995960
vt 0.375000 0.995960
vt 0.125000 0.000000
vt 0.370960 0.000000
vt 0.370511 0.250000
vt 0.125000 0.250000
vt 0.629040 -0.000000
vt 0.875000 0.000000
vt 0.875000 0.250000
vt 0.629489 0.250000
vt 0.575007 0.005231
vt 0.375000 0.005231
vt 0.375000 0.244769
vt 0.575007 0.244769
vt 0.619996 0.257088
vt 0.375000 0.257088
vt 0.375000 0.500000
vt 0.625000 0.500000
vt 0.625000 0.257877
vt 0.375000 0.750000
vt 0.625000 0.750000
vt 0.375000 0.992912
vt 0.619996 0.992912
vt 0.625000 0.992124
vt 0.632876 0.000000
vt 0.632876 0.250000
vt 0.875000 0.250000
vt 0.875000 0.000000
vt 0.375000 1.000000
vt 0.575007 1.000000
vt 0.375000 0.000000
vt 0.575007 0.000000
vt 0.375000 0.250000
vt 0.575007 0.250000
vt 0.367912 0.000000
vt 0.125000 0.000000
vt 0.125000 0.250000
vt 0.367912 0.250000
vt 0.627087 -0.000000
vt 0.627090 0.250000
vt 0.375000 0.022498
vt 0.625000 0.022498
vt 0.625000 0.225002
vt 0.375000 0.225002
vt 0.375000 0.254489
vt 0.625000 0.254489
vt 0.625000 0.500000
vt 0.375000 0.500000
vt 0.625000 0.750000
vt 0.375000 0.750000
vt 0.625000 0.995960
vt 0.375000 0.995960
vt 0.125000 0.000000
vt 0.370960 -0.000000
vt 0.370511 0.250000
vt 0.125000 0.250000
vt 0.629040 0.000000
vt 0.875000 0.000000
vt 0.875000 0.250000
vt 0.629489 0.250000
vt 0.625000 0.005231
vt 0.424994 0.005231
vt 0.424994 0.244769
vt 0.625000 0.244769
vt 0.375000 0.500000
vt 0.375000 0.750000
vt 0.625000 0.750000
vt 0.625000 0.500000
vt 0.375000 0.992124
vt 0.380004 0.992912
vt 0.625000 0.992912
vt 0.125000 0.000000
vt 0.125000 0.250000
vt 0.367124 0.250000
vt 0.367124 0.000000
vt 0.625000 0.257088
vt 0.380004 0.257088
vt 0.375000 0.257876
vt 0.625000 0.000000
vt 0.424994 0.000000
vt 0.625000 1.000000
vt 0.424994 1.000000
vt 0.625000 0.250000
vt 0.424994 0.250000
vt 0.875000 0.250000
vt 0.875000 0.000000
vt 0.632088 0.000000
vt 0.632088 0.250000
vt 0.372913 -0.000000
vt 0.372910 0.250000
vn 1.000000 0.000000 0.000000
vn 1.000000 0.000000 0.000000
vn 1.000000 0.000000 0.000000
vn 1.000000 0.000000 0.000000
vn 0.000000 1.000000 0.000000
vn 0.000000 1.000000 0.000000
vn 0.000000 1.000000 0.000000
vn 0.000000 1.000000 0.000000
vn -1.000000 0.000000 0.000000
vn -1.000000 0.000000 0.000000
vn -1.000000 0.000000 0.000000
vn -1.000000 0.000000 0.000000
vn 0.000000 -1.000000 0.000000
vn 0.000000 -1.000000 0.000000
vn 0.000000 -1.000000 0.000000
vn 0.000000 -1.000000 0.000000
vn 0.000000 0.000000 1.000000
vn 0.000000 0.000000 1.000000
vn 0.000000 0.000000 1.000000
vn 0.000000 0.000000 1.000000
vn 0.000000 0.000000 1.000000
vn 0.000000 0.000000 1.000000
vn 0.820718 0.571333 0.000000
vn 0.820718 0.571333 0.000000
vn 0.820718 0.571333 0.000000
vn 0.820718 0.571333 0.000000
vn 0.000000 0.000000 -1.000000
vn 0.000000 0.000000 -1.000000
vn 0.000000 0.000000 -1.000000
vn 0.000000 0.000000 -1.000000
vn 0.000000 0.000000 -1.000000
vn 0.000000 0.000000 -1.000000
vn 0.820729 -0.571318 0.000000
vn 0.820729 -0.571318 0.000000
vn 0.820729 -0.571318 0.000000
vn 0.820729 -0.571318 0.000000
vn 1.000000 0.000000 0.000000
vn 1.000000 0.000000 0.000000
vn 1.000000 0.000000 0.000000
vn 1.000000 0.000000 0.000000
vn 0.000000 1.000000 0.000000
vn 0.000000 1.000000 0.000000
vn 0.000000 1.000000 0.000000
vn 0.000000 1.000000 0.000000
vn -1.000000 0.000000 0.000000
vn -1.000000 0.000000 0.000000
vn -1.000000 0.000000 0.000000
vn -1.000000 0.000000 0.000000
vn 0.000000 -1.000000 0.000000
vn 0.000000 -1.000000 0.000000
vn 0.000000 -1.000000 0.000000
vn 0.000000 -1.000000 0.000000
vn -0.000000 0.000000 1.000000
vn -0.000000 0.000000 1.000000
vn -0.000000 0.000000 1.000000
vn -0.000000 0.000000 1.000000
vn -0.000000 0.000000 1.000000
vn -0.000000 0.000000 1.000000
vn 0.820730 0.571317 0.000000
vn 0.820730 0.571317 0.000000
vn 0.820730 0.571317 0.000000
vn 0.820730 0.571317 0.000000
vn 0.000000 0.000000 -1.000000
vn 0.000000 0.000000 -1.000000
vn 0.000000 0.000000 -1.000000
vn 0.000000 0.000000 -1.000000
vn 0.000000 0.000000 -1.000000
vn 0.000000 0.000000 -1.000000
vn 0.820729 -0.571318 0.000000
vn 0.820729 -0.571318 0.000000
vn 0.820729 -0.571318 0.000000
vn 0.820729 -0.571318 0.000000
vn 0.999755 -0.022125 -0.000211
vn 0.999770 -0.021450 -0.000204
vn 0.999920 -0.012641 -0.000121
vn 0.999937 -0.011258 -0.000109
vn 0.003379 0.999954 0.009025
vn 0.011041 0.999898 0.009025
vn 0.000000 0.999959 0.009025
vn 0.000000 0.999959 0.009025
vn 0.000000 0.999959 0.009025
vn -0.999855 -0.017050 -0.000161
vn -0.999855 -0.017050 -0.000161
vn -0.999855 -0.017050 -0.000161
vn -0.999855 -0.017050 -0.000161
vn -0.000000 -0.999951 -0.009909
vn 0.011046 -0.999890 -0.009908
vn 0.003656 -0.999944 -0.009909
vn -0.000000 -0.999951 -0.009909
vn -0.000000 -0.999951 -0.009909
vn 0.000000 -0.041726 0.999129
vn 0.000000 -0.041726 0.999129
vn 0.000000 -0.041726 0.999129
vn 0.000000 -0.041726 0.999129
vn 0.511346 -0.859332 -0.008518
vn 0.511346 -0.859332 -0.008518
vn 0.960850 -0.277054 -0.002745
vn 0.960850 -0.277054 -0.002745
vn 0.960857 0.277033 0.002500
vn 0.960857 0.277033 0.002500
vn 0.511330 0.859350 0.007760
vn 0.511330 0.859350 0.007760
vn 0.000006 0.024377 -0.999703
vn 0.000006 0.024377 -0.999703
vn 0.000006 0.024377 -0.999703
vn 0.000006 0.024377 -0.999703
vn 0.000006 0.024377 -0.999703
vn 0.000006 0.024377 -0.999703
vn 0.000006 0.024377 -0.999703
vn 0.000006 0.024377 -0.999703
vn 0.807910 -0.037230 0.588128
vn 0.807910 -0.037230 0.588128
vn 0.807910 -0.037230 0.588128
vn 0.807910 -0.037230 0.588128
vn 0.807910 -0.037230 0.588128
vn 0.807910 -0.037230 0.588128
vn 0.807910 -0.037230 0.588128
vn 0.807910 -0.037230 0.588128
vn 1.000000 0.000000 0.000000
vn 1.000000 0.000000 0.000000
vn 1.000000 0.000000 0.000000
vn 1.000000 0.000000 0.000000
vn 0.000000 1.000000 0.000000
vn 0.000000 1.000000 0.000000
vn 0.000000 1.000000 0.000000
vn 0.000000 1.000000 0.000000
vn -1.000000 0.000000 0.000000
vn -1.000000 0.000000 0.000000
vn -1.000000 0.000000 0.000000
vn -1.000000 0.000000 0.000000
vn 0.000000 -1.000000 0.000000
vn 0.000000 -1.000000 0.000000
vn 0.000000 -1.000000 0.000000
vn 0.000000 -1.000000 0.000000
vn 0.000000 0.000000 1.000000
vn 0.000000 0.000000 1.000000
vn 0.000000 0.000000 1.000000
vn 0.000000 0.000000 1.000000
vn 0.000000 0.000000 1.000000
vn 0.000000 0.000000 1.000000
vn 0.820724 0.571325 0.000000
vn 0.820724 0.571325 0.000000
vn 0.820724 0.571325 0.000000
vn 0.820724 0.571325 0.000000
vn 0.000000 0.000000 -1.000000
vn 0.000000 0.000000 -1.000000
vn 0.000000 0.000000 -1.000000
vn 0.000000 0.000000 -1.000000
vn 0.000000 0.000000 -1.000000
vn 0.000000 0.000000 -1.000000
vn 0.820729 -0.571318 0.000000
vn 0.820729 -0.571318 0.000000
vn 0.820729 -0.571318 0.000000
vn 0.820729 -0.571318 0.000000
vn 0.999860 -0.016718 0.000000
vn 0.999847 -0.017488 0.000000
vn 0.999978 -0.006615 0.000000
vn 0.999969 -0.007811 0.000000
vn -0.999922 -0.012489 0.000000
vn -0.999922 -0.012489 0.000000
vn -0.999922 -0.012489 0.000000
vn -0.999922 -0.012489 0.000000
vn 0.000000 -1.000000 -0.000003
vn 0.000000 -1.000000 -0.000003
vn 0.003812 -0.999993 -0.000003
vn 0.011041 -0.999939 -0.000003
vn 0.000000 -1.000000 -0.000003
vn 0.000000 -0.010210 -0.999948
vn 0.000000 -0.010210 -0.999948
vn 0.000000 -0.010210 -0.999948
vn 0.000000 -0.010210 -0.999948
vn 0.011041 0.999939 0.000000
vn 0.003379 0.999994 0.000000
vn 0.000000 1.000000 0.000000
vn 0.000000 1.000000 0.000000
vn 0.000000 1.000000 0.000000
vn 0.960859 -0.277037 0.000000
vn 0.960859 -0.277037 0.000000
vn 0.511320 -0.859390 0.000000
vn 0.511320 -0.859390 0.000000
vn 0.511336 0.859381 0.000000
vn 0.511336 0.859381 0.000000
vn 0.960859 0.277036 0.000000
vn 0.960859 0.277036 0.000000
vn -0.000010 -0.010213 0.999948
vn -0.000010 -0.010213 0.999948
vn -0.000010 -0.010213 0.999948
vn -0.000010 -0.010213 0.999948
vn -0.000010 -0.010213 0.999948
vn -0.000010 -0.010213 0.999948
vn -0.000010 -0.010213 0.999948
vn -0.000010 -0.010213 0.999948
vn 0.801835 -0.014737 -0.597363
vn 0.801835 -0.014737 -0.597363
vn 0.801835 -0.014737 -0.597363
vn 0.801835 -0.014737 -0.597363
vn 0.801835 -0.014737 -0.597363
vn 0.801835 -0.014737 -0.597363
vn 0.801835 -0.014737 -0.597363
vn 0.801835 -0.014737 -0.597363
s off
g polySurface1286
usemtl initialShadingGroup
f 10/1/1 12/2/2 8/3/3 6/4/4
f 5/5/5 7/6/6 2/7/7 1/8/8
f 1/8/9 2/7/10 4/9/11 3/10/12
f 3/10/13 4/9/14 11/11/15 9/12/16
f 3/13/17 9/14/18 10/1/19 6/4/20 5/15/21 1/16/22
f 5/5/23 6/4/24 8/3/25 7/6/26
f 12/2/27 11/17/28 4/18/29 2/19/30 7/20/31 8/3/32
f 10/1/33 9/14/34 11/17/35 12/2/36
f 22/21/37 24/22/38 20/23/39 18/24/40
f 17/25/41 19/26/42 14/27/43 13/28/44
f 13/28/45 14/27/46 16/29/47 15/30/48
f 15/30/49 16/29/50 23/31/51 21/32/52
f 15/33/53 21/34/54 22/21/55 18/24/56 17/35/57 13/36/58
f 17/25/59 18/24/60 20/23/61 19/26/62
f 24/22/63 23/37/64 16/38/65 14/39/66 19/40/67 20/23/68
f 22/21/69 21/34/70 23/37/71 24/22/72
s 1
f 34/41/73 32/42/74 37/43/75 40/44/76
s 2
f 42/45/77 38/46/78 25/47/79 26/48/80 30/49/81
s off
f 25/47/82 27/50/83 28/51/84 26/48/85
s 3
f 27/50/86 31/52/87 35/53/88 29/54/89 28/51/90
s off
f 29/55/91 30/56/92 26/57/93 28/58/94
s 3
f 31/52/87 33/59/95 36/60/96 35/53/88
s 1
f 33/61/97 32/42/74 34/41/73 36/62/98
f 37/43/75 39/63/99 41/64/100 40/44/76
s 2
f 39/63/101 38/46/78 42/45/77 41/64/102
s off
f 37/43/103 32/42/104 33/61/105 31/65/106 27/66/107 25/67/108 38/68/109 39/63/110
f 30/56/111 29/55/112 35/69/113 36/62/114 34/41/115 40/44/116 41/64/117 42/70/118
f 52/71/119 54/72/120 50/73/121 48/74/122
f 47/75/123 49/76/124 44/77/125 43/78/126
f 43/78/127 44/77/128 46/79/129 45/80/130
f 45/80/131 46/79/132 53/81/133 51/82/134
f 45/83/135 51/84/136 52/71/137 48/74/138 47/85/139 43/86/140
f 47/75/141 48/74/142 50/73/143 49/76/144
f 54/72/145 53/87/146 46/88/147 44/89/148 49/90/149 50/73/150
f 52/71/151 51/84/152 53/87/153 54/72/154
s 4
f 62/91/155 64/92/156 70/93/157 67/94/158
s off
f 55/95/159 57/96/160 58/97/161 56/98/162
s 5
f 57/96/163 59/99/164 66/100/165 63/101/166 58/97/167
s off
f 57/102/168 55/103/169 60/104/170 59/105/171
s 6
f 69/106/172 71/107/173 60/108/174 55/95/175 56/98/176
s 4
f 62/91/155 61/109/177 65/110/178 64/92/156
s 5
f 61/111/179 63/101/166 66/100/165 65/112/180
s 6
f 69/106/172 68/113/181 72/114/182 71/107/173
s 4
f 68/113/183 67/94/158 70/93/157 72/114/184
s off
f 56/115/185 58/116/186 63/117/187 61/109/188 62/91/189 67/94/190 68/113/191 69/118/192
f 70/93/193 64/92/194 65/110/195 66/119/196 59/105/197 60/104/198 71/120/199 72/114/200
